<svg width="47" height="16" viewBox="0 0 47 16" fill="none" xmlns="http://www.w3.org/2000/svg">
<path d="M3.6 12.12C2.712 12.12 1.98 11.86 1.404 11.34C0.836 10.82 0.552 10.068 0.552 9.084C0.552 8.54 0.66 8.056 0.876 7.632C1.092 7.2 1.376 6.86 1.728 6.612C2.456 6.108 3.252 5.856 4.116 5.856C4.38 5.856 4.64 5.888 4.896 5.952C5.152 6.016 5.344 6.08 5.472 6.144L5.664 6.252V7.668H4.932L4.764 6.936C4.652 6.848 4.436 6.804 4.116 6.804C3.428 6.804 2.856 7.012 2.4 7.428C1.944 7.844 1.716 8.368 1.716 9C1.716 9.632 1.912 10.156 2.304 10.572C2.704 10.98 3.232 11.184 3.888 11.184C4.208 11.184 4.504 11.152 4.776 11.088C5.056 11.016 5.252 10.944 5.364 10.872L5.532 10.776L5.88 11.4C5.856 11.416 5.82 11.444 5.772 11.484C5.732 11.516 5.64 11.572 5.496 11.652C5.352 11.732 5.2 11.804 5.04 11.868C4.608 12.036 4.128 12.12 3.6 12.12ZM12.1253 11.268C11.5413 11.844 10.8053 12.132 9.91725 12.132C9.02925 12.132 8.29325 11.844 7.70925 11.268C7.12525 10.684 6.83325 9.928 6.83325 9C6.83325 8.072 7.12525 7.316 7.70925 6.732C8.29325 6.148 9.02925 5.856 9.91725 5.856C10.8053 5.856 11.5413 6.148 12.1253 6.732C12.7093 7.316 13.0013 8.072 13.0013 9C13.0013 9.928 12.7093 10.684 12.1253 11.268ZM8.53725 10.608C8.89725 10.992 9.35725 11.184 9.91725 11.184C10.4773 11.184 10.9373 10.992 11.2973 10.608C11.6573 10.216 11.8373 9.692 11.8373 9.036C11.8373 8.38 11.6533 7.844 11.2853 7.428C10.9253 7.012 10.4693 6.804 9.91725 6.804C9.36525 6.804 8.90525 7.012 8.53725 7.428C8.17725 7.844 7.99725 8.38 7.99725 9.036C7.99725 9.692 8.17725 10.216 8.53725 10.608ZM21.2266 12H18.0706V11.484L19.0306 11.088V8.22C19.0306 7.748 18.9506 7.396 18.7906 7.164C18.6386 6.932 18.3586 6.816 17.9506 6.816C17.2946 6.816 16.7066 7.076 16.1866 7.596V11.088L17.2066 11.484V12H14.0506V11.484L15.0586 11.088V6.804H14.0506V6.084C14.3626 5.932 14.7186 5.856 15.1186 5.856C15.5186 5.856 15.7906 5.944 15.9346 6.12C16.0866 6.296 16.1706 6.56 16.1866 6.912C16.2986 6.768 16.4666 6.604 16.6906 6.42C17.1626 6.044 17.7026 5.856 18.3106 5.856C18.9186 5.856 19.3786 6.032 19.6906 6.384C20.0026 6.728 20.1586 7.2 20.1586 7.8V11.088L21.2266 11.484V12ZM22.7779 12.504V6.804H21.7699V6.084C22.0819 5.932 22.4419 5.856 22.8499 5.856C23.2659 5.856 23.5459 5.956 23.6899 6.156C23.8339 6.348 23.9059 6.644 23.9059 7.044V12.84C23.9059 13.632 23.7059 14.232 23.3059 14.64C22.9059 15.056 22.3419 15.264 21.6139 15.264C21.3259 15.264 21.0619 15.22 20.8219 15.132C20.5739 15.044 20.3979 14.96 20.2939 14.88L20.1499 14.748L20.4739 14.088C20.6979 14.216 21.0339 14.28 21.4819 14.28C21.9299 14.28 22.2579 14.156 22.4659 13.908C22.6739 13.66 22.7779 13.192 22.7779 12.504ZM23.9539 4.476C23.7699 4.66 23.5459 4.752 23.2819 4.752C23.0179 4.752 22.7939 4.66 22.6099 4.476C22.4259 4.292 22.3339 4.068 22.3339 3.804C22.3339 3.54 22.4259 3.316 22.6099 3.132C22.7939 2.948 23.0179 2.856 23.2819 2.856C23.5459 2.856 23.7699 2.948 23.9539 3.132C24.1379 3.316 24.2299 3.54 24.2299 3.804C24.2299 4.068 24.1379 4.292 23.9539 4.476ZM32.2101 11.184V11.904C31.8981 12.056 31.5461 12.132 31.1541 12.132C30.7621 12.132 30.4901 12.052 30.3381 11.892C30.1861 11.724 30.0981 11.48 30.0741 11.16C29.9701 11.28 29.8501 11.4 29.7141 11.52C29.5781 11.64 29.3501 11.772 29.0301 11.916C28.7181 12.06 28.3901 12.132 28.0461 12.132C27.4221 12.132 26.9541 11.96 26.6421 11.616C26.3301 11.264 26.1741 10.788 26.1741 10.188V6.804H25.1661V6.084C25.4781 5.932 25.8381 5.856 26.2461 5.856C26.6621 5.856 26.9421 5.956 27.0861 6.156C27.2301 6.348 27.3021 6.644 27.3021 7.044V9.768C27.3021 10.24 27.3781 10.592 27.5301 10.824C27.6901 11.056 27.9741 11.172 28.3821 11.172C28.7901 11.172 29.1381 11.096 29.4261 10.944C29.7141 10.784 29.9301 10.62 30.0741 10.452V6.804H29.0661V6.084C29.3781 5.932 29.7381 5.856 30.1461 5.856C30.5621 5.856 30.8421 5.956 30.9861 6.156C31.1301 6.348 31.2021 6.644 31.2021 7.044V11.184H32.2101ZM36.191 12H33.035V11.484L34.043 11.088V6.804H33.035V6.084C33.347 5.932 33.699 5.856 34.091 5.856C34.483 5.856 34.755 5.94 34.907 6.108C35.059 6.276 35.143 6.524 35.159 6.852C35.239 6.612 35.403 6.396 35.651 6.204C35.947 5.972 36.339 5.856 36.827 5.856C37.043 5.856 37.247 5.884 37.439 5.94C37.639 5.996 37.783 6.052 37.871 6.108L38.015 6.192V7.608H37.295L37.139 6.888C37.091 6.84 36.959 6.816 36.743 6.816C36.527 6.816 36.319 6.848 36.119 6.912C35.919 6.968 35.763 7.04 35.651 7.128C35.427 7.32 35.267 7.516 35.171 7.716V11.088L36.191 11.484V12ZM41.8737 12.12C40.9697 12.12 40.2337 11.864 39.6657 11.352C39.1057 10.832 38.8257 10.076 38.8257 9.084C38.8257 8.092 39.1137 7.308 39.6897 6.732C40.2657 6.148 40.9377 5.856 41.7057 5.856C43.5297 5.856 44.4417 6.936 44.4417 9.096H39.9897V9.156C39.9897 9.724 40.1897 10.204 40.5897 10.596C40.9897 10.988 41.5337 11.184 42.2217 11.184C42.5177 11.184 42.7977 11.152 43.0617 11.088C43.3257 11.016 43.5177 10.944 43.6377 10.872L43.8057 10.776L44.1537 11.4C44.1297 11.416 44.0937 11.444 44.0457 11.484C44.0057 11.516 43.9137 11.572 43.7697 11.652C43.6257 11.732 43.4697 11.804 43.3017 11.868C42.8777 12.036 42.4017 12.12 41.8737 12.12ZM43.3257 8.328C43.2857 7.832 43.1217 7.456 42.8337 7.2C42.5537 6.936 42.1857 6.804 41.7297 6.804C41.2817 6.804 40.9097 6.932 40.6137 7.188C40.3177 7.436 40.1257 7.816 40.0377 8.328H43.3257Z" fill="#F2BC27"/>
<path d="M5.6 12.12C4.712 12.12 3.98 11.86 3.404 11.34C2.836 10.82 2.552 10.068 2.552 9.084C2.552 8.54 2.66 8.056 2.876 7.632C3.092 7.2 3.376 6.86 3.728 6.612C4.456 6.108 5.252 5.856 6.116 5.856C6.38 5.856 6.64 5.888 6.896 5.952C7.152 6.016 7.344 6.08 7.472 6.144L7.664 6.252V7.668H6.932L6.764 6.936C6.652 6.848 6.436 6.804 6.116 6.804C5.428 6.804 4.856 7.012 4.4 7.428C3.944 7.844 3.716 8.368 3.716 9C3.716 9.632 3.912 10.156 4.304 10.572C4.704 10.98 5.232 11.184 5.888 11.184C6.208 11.184 6.504 11.152 6.776 11.088C7.056 11.016 7.252 10.944 7.364 10.872L7.532 10.776L7.88 11.4C7.856 11.416 7.82 11.444 7.772 11.484C7.732 11.516 7.64 11.572 7.496 11.652C7.352 11.732 7.2 11.804 7.04 11.868C6.608 12.036 6.128 12.12 5.6 12.12ZM14.1253 11.268C13.5413 11.844 12.8053 12.132 11.9173 12.132C11.0293 12.132 10.2933 11.844 9.70925 11.268C9.12525 10.684 8.83325 9.928 8.83325 9C8.83325 8.072 9.12525 7.316 9.70925 6.732C10.2933 6.148 11.0293 5.856 11.9173 5.856C12.8053 5.856 13.5413 6.148 14.1253 6.732C14.7093 7.316 15.0013 8.072 15.0013 9C15.0013 9.928 14.7093 10.684 14.1253 11.268ZM10.5373 10.608C10.8973 10.992 11.3573 11.184 11.9173 11.184C12.4773 11.184 12.9373 10.992 13.2973 10.608C13.6573 10.216 13.8373 9.692 13.8373 9.036C13.8373 8.38 13.6533 7.844 13.2853 7.428C12.9253 7.012 12.4693 6.804 11.9173 6.804C11.3653 6.804 10.9053 7.012 10.5373 7.428C10.1773 7.844 9.99725 8.38 9.99725 9.036C9.99725 9.692 10.1773 10.216 10.5373 10.608ZM23.2266 12H20.0706V11.484L21.0306 11.088V8.22C21.0306 7.748 20.9506 7.396 20.7906 7.164C20.6386 6.932 20.3586 6.816 19.9506 6.816C19.2946 6.816 18.7066 7.076 18.1866 7.596V11.088L19.2066 11.484V12H16.0506V11.484L17.0586 11.088V6.804H16.0506V6.084C16.3626 5.932 16.7186 5.856 17.1186 5.856C17.5186 5.856 17.7906 5.944 17.9346 6.12C18.0866 6.296 18.1706 6.56 18.1866 6.912C18.2986 6.768 18.4666 6.604 18.6906 6.42C19.1626 6.044 19.7026 5.856 20.3106 5.856C20.9186 5.856 21.3786 6.032 21.6906 6.384C22.0026 6.728 22.1586 7.2 22.1586 7.8V11.088L23.2266 11.484V12ZM24.7779 12.504V6.804H23.7699V6.084C24.0819 5.932 24.4419 5.856 24.8499 5.856C25.2659 5.856 25.5459 5.956 25.6899 6.156C25.8339 6.348 25.9059 6.644 25.9059 7.044V12.84C25.9059 13.632 25.7059 14.232 25.3059 14.64C24.9059 15.056 24.3419 15.264 23.6139 15.264C23.3259 15.264 23.0619 15.22 22.8219 15.132C22.5739 15.044 22.3979 14.96 22.2939 14.88L22.1499 14.748L22.4739 14.088C22.6979 14.216 23.0339 14.28 23.4819 14.28C23.9299 14.28 24.2579 14.156 24.4659 13.908C24.6739 13.66 24.7779 13.192 24.7779 12.504ZM25.9539 4.476C25.7699 4.66 25.5459 4.752 25.2819 4.752C25.0179 4.752 24.7939 4.66 24.6099 4.476C24.4259 4.292 24.3339 4.068 24.3339 3.804C24.3339 3.54 24.4259 3.316 24.6099 3.132C24.7939 2.948 25.0179 2.856 25.2819 2.856C25.5459 2.856 25.7699 2.948 25.9539 3.132C26.1379 3.316 26.2299 3.54 26.2299 3.804C26.2299 4.068 26.1379 4.292 25.9539 4.476ZM34.2101 11.184V11.904C33.8981 12.056 33.5461 12.132 33.1541 12.132C32.7621 12.132 32.4901 12.052 32.3381 11.892C32.1861 11.724 32.0981 11.48 32.0741 11.16C31.9701 11.28 31.8501 11.4 31.7141 11.52C31.5781 11.64 31.3501 11.772 31.0301 11.916C30.7181 12.06 30.3901 12.132 30.0461 12.132C29.4221 12.132 28.9541 11.96 28.6421 11.616C28.3301 11.264 28.1741 10.788 28.1741 10.188V6.804H27.1661V6.084C27.4781 5.932 27.8381 5.856 28.2461 5.856C28.6621 5.856 28.9421 5.956 29.0861 6.156C29.2301 6.348 29.3021 6.644 29.3021 7.044V9.768C29.3021 10.24 29.3781 10.592 29.5301 10.824C29.6901 11.056 29.9741 11.172 30.3821 11.172C30.7901 11.172 31.1381 11.096 31.4261 10.944C31.7141 10.784 31.9301 10.62 32.0741 10.452V6.804H31.0661V6.084C31.3781 5.932 31.7381 5.856 32.1461 5.856C32.5621 5.856 32.8421 5.956 32.9861 6.156C33.1301 6.348 33.2021 6.644 33.2021 7.044V11.184H34.2101ZM38.191 12H35.035V11.484L36.043 11.088V6.804H35.035V6.084C35.347 5.932 35.699 5.856 36.091 5.856C36.483 5.856 36.755 5.94 36.907 6.108C37.059 6.276 37.143 6.524 37.159 6.852C37.239 6.612 37.403 6.396 37.651 6.204C37.947 5.972 38.339 5.856 38.827 5.856C39.043 5.856 39.247 5.884 39.439 5.94C39.639 5.996 39.783 6.052 39.871 6.108L40.015 6.192V7.608H39.295L39.139 6.888C39.091 6.84 38.959 6.816 38.743 6.816C38.527 6.816 38.319 6.848 38.119 6.912C37.919 6.968 37.763 7.04 37.651 7.128C37.427 7.32 37.267 7.516 37.171 7.716V11.088L38.191 11.484V12ZM43.8737 12.12C42.9697 12.12 42.2337 11.864 41.6657 11.352C41.1057 10.832 40.8257 10.076 40.8257 9.084C40.8257 8.092 41.1137 7.308 41.6897 6.732C42.2657 6.148 42.9377 5.856 43.7057 5.856C45.5297 5.856 46.4417 6.936 46.4417 9.096H41.9897V9.156C41.9897 9.724 42.1897 10.204 42.5897 10.596C42.9897 10.988 43.5337 11.184 44.2217 11.184C44.5177 11.184 44.7977 11.152 45.0617 11.088C45.3257 11.016 45.5177 10.944 45.6377 10.872L45.8057 10.776L46.1537 11.4C46.1297 11.416 46.0937 11.444 46.0457 11.484C46.0057 11.516 45.9137 11.572 45.7697 11.652C45.6257 11.732 45.4697 11.804 45.3017 11.868C44.8777 12.036 44.4017 12.12 43.8737 12.12ZM45.3257 8.328C45.2857 7.832 45.1217 7.456 44.8337 7.2C44.5537 6.936 44.1857 6.804 43.7297 6.804C43.2817 6.804 42.9097 6.932 42.6137 7.188C42.3177 7.436 42.1257 7.816 42.0377 8.328H45.3257Z" fill="#27F2B7"/>
<path d="M4.6 12.12C3.712 12.12 2.98 11.86 2.404 11.34C1.836 10.82 1.552 10.068 1.552 9.084C1.552 8.54 1.66 8.056 1.876 7.632C2.092 7.2 2.376 6.86 2.728 6.612C3.456 6.108 4.252 5.856 5.116 5.856C5.38 5.856 5.64 5.888 5.896 5.952C6.152 6.016 6.344 6.08 6.472 6.144L6.664 6.252V7.668H5.932L5.764 6.936C5.652 6.848 5.436 6.804 5.116 6.804C4.428 6.804 3.856 7.012 3.4 7.428C2.944 7.844 2.716 8.368 2.716 9C2.716 9.632 2.912 10.156 3.304 10.572C3.704 10.98 4.232 11.184 4.888 11.184C5.208 11.184 5.504 11.152 5.776 11.088C6.056 11.016 6.252 10.944 6.364 10.872L6.532 10.776L6.88 11.4C6.856 11.416 6.82 11.444 6.772 11.484C6.732 11.516 6.64 11.572 6.496 11.652C6.352 11.732 6.2 11.804 6.04 11.868C5.608 12.036 5.128 12.12 4.6 12.12ZM13.1253 11.268C12.5413 11.844 11.8053 12.132 10.9173 12.132C10.0293 12.132 9.29325 11.844 8.70925 11.268C8.12525 10.684 7.83325 9.928 7.83325 9C7.83325 8.072 8.12525 7.316 8.70925 6.732C9.29325 6.148 10.0293 5.856 10.9173 5.856C11.8053 5.856 12.5413 6.148 13.1253 6.732C13.7093 7.316 14.0013 8.072 14.0013 9C14.0013 9.928 13.7093 10.684 13.1253 11.268ZM9.53725 10.608C9.89725 10.992 10.3573 11.184 10.9173 11.184C11.4773 11.184 11.9373 10.992 12.2973 10.608C12.6573 10.216 12.8373 9.692 12.8373 9.036C12.8373 8.38 12.6533 7.844 12.2853 7.428C11.9253 7.012 11.4693 6.804 10.9173 6.804C10.3653 6.804 9.90525 7.012 9.53725 7.428C9.17725 7.844 8.99725 8.38 8.99725 9.036C8.99725 9.692 9.17725 10.216 9.53725 10.608ZM22.2266 12H19.0706V11.484L20.0306 11.088V8.22C20.0306 7.748 19.9506 7.396 19.7906 7.164C19.6386 6.932 19.3586 6.816 18.9506 6.816C18.2946 6.816 17.7066 7.076 17.1866 7.596V11.088L18.2066 11.484V12H15.0506V11.484L16.0586 11.088V6.804H15.0506V6.084C15.3626 5.932 15.7186 5.856 16.1186 5.856C16.5186 5.856 16.7906 5.944 16.9346 6.12C17.0866 6.296 17.1706 6.56 17.1866 6.912C17.2986 6.768 17.4666 6.604 17.6906 6.42C18.1626 6.044 18.7026 5.856 19.3106 5.856C19.9186 5.856 20.3786 6.032 20.6906 6.384C21.0026 6.728 21.1586 7.2 21.1586 7.8V11.088L22.2266 11.484V12ZM23.7779 12.504V6.804H22.7699V6.084C23.0819 5.932 23.4419 5.856 23.8499 5.856C24.2659 5.856 24.5459 5.956 24.6899 6.156C24.8339 6.348 24.9059 6.644 24.9059 7.044V12.84C24.9059 13.632 24.7059 14.232 24.3059 14.64C23.9059 15.056 23.3419 15.264 22.6139 15.264C22.3259 15.264 22.0619 15.22 21.8219 15.132C21.5739 15.044 21.3979 14.96 21.2939 14.88L21.1499 14.748L21.4739 14.088C21.6979 14.216 22.0339 14.28 22.4819 14.28C22.9299 14.28 23.2579 14.156 23.4659 13.908C23.6739 13.66 23.7779 13.192 23.7779 12.504ZM24.9539 4.476C24.7699 4.66 24.5459 4.752 24.2819 4.752C24.0179 4.752 23.7939 4.66 23.6099 4.476C23.4259 4.292 23.3339 4.068 23.3339 3.804C23.3339 3.54 23.4259 3.316 23.6099 3.132C23.7939 2.948 24.0179 2.856 24.2819 2.856C24.5459 2.856 24.7699 2.948 24.9539 3.132C25.1379 3.316 25.2299 3.54 25.2299 3.804C25.2299 4.068 25.1379 4.292 24.9539 4.476ZM33.2101 11.184V11.904C32.8981 12.056 32.5461 12.132 32.1541 12.132C31.7621 12.132 31.4901 12.052 31.3381 11.892C31.1861 11.724 31.0981 11.48 31.0741 11.16C30.9701 11.28 30.8501 11.4 30.7141 11.52C30.5781 11.64 30.3501 11.772 30.0301 11.916C29.7181 12.06 29.3901 12.132 29.0461 12.132C28.4221 12.132 27.9541 11.96 27.6421 11.616C27.3301 11.264 27.1741 10.788 27.1741 10.188V6.804H26.1661V6.084C26.4781 5.932 26.8381 5.856 27.2461 5.856C27.6621 5.856 27.9421 5.956 28.0861 6.156C28.2301 6.348 28.3021 6.644 28.3021 7.044V9.768C28.3021 10.24 28.3781 10.592 28.5301 10.824C28.6901 11.056 28.9741 11.172 29.3821 11.172C29.7901 11.172 30.1381 11.096 30.4261 10.944C30.7141 10.784 30.9301 10.62 31.0741 10.452V6.804H30.0661V6.084C30.3781 5.932 30.7381 5.856 31.1461 5.856C31.5621 5.856 31.8421 5.956 31.9861 6.156C32.1301 6.348 32.2021 6.644 32.2021 7.044V11.184H33.2101ZM37.191 12H34.035V11.484L35.043 11.088V6.804H34.035V6.084C34.347 5.932 34.699 5.856 35.091 5.856C35.483 5.856 35.755 5.94 35.907 6.108C36.059 6.276 36.143 6.524 36.159 6.852C36.239 6.612 36.403 6.396 36.651 6.204C36.947 5.972 37.339 5.856 37.827 5.856C38.043 5.856 38.247 5.884 38.439 5.94C38.639 5.996 38.783 6.052 38.871 6.108L39.015 6.192V7.608H38.295L38.139 6.888C38.091 6.84 37.959 6.816 37.743 6.816C37.527 6.816 37.319 6.848 37.119 6.912C36.919 6.968 36.763 7.04 36.651 7.128C36.427 7.32 36.267 7.516 36.171 7.716V11.088L37.191 11.484V12ZM42.8737 12.12C41.9697 12.12 41.2337 11.864 40.6657 11.352C40.1057 10.832 39.8257 10.076 39.8257 9.084C39.8257 8.092 40.1137 7.308 40.6897 6.732C41.2657 6.148 41.9377 5.856 42.7057 5.856C44.5297 5.856 45.4417 6.936 45.4417 9.096H40.9897V9.156C40.9897 9.724 41.1897 10.204 41.5897 10.596C41.9897 10.988 42.5337 11.184 43.2217 11.184C43.5177 11.184 43.7977 11.152 44.0617 11.088C44.3257 11.016 44.5177 10.944 44.6377 10.872L44.8057 10.776L45.1537 11.4C45.1297 11.416 45.0937 11.444 45.0457 11.484C45.0057 11.516 44.9137 11.572 44.7697 11.652C44.6257 11.732 44.4697 11.804 44.3017 11.868C43.8777 12.036 43.4017 12.12 42.8737 12.12ZM44.3257 8.328C44.2857 7.832 44.1217 7.456 43.8337 7.2C43.5537 6.936 43.1857 6.804 42.7297 6.804C42.2817 6.804 41.9097 6.932 41.6137 7.188C41.3177 7.436 41.1257 7.816 41.0377 8.328H44.3257Z" fill="black"/>
</svg>
